<svg xmlns="http://www.w3.org/2000/svg" xmlns:xlink="http://www.w3.org/1999/xlink" viewBox="0 0 264.99662 267.57595"><defs><linearGradient id="linear-gradient" x1="0.09273" y1="133.78798" x2="139.776" y2="133.78798" gradientUnits="userSpaceOnUse"><stop offset="0" stop-color="#0895d3"/><stop offset="1" stop-color="#2c81d3"/></linearGradient><linearGradient id="linear-gradient-2" x1="125.31313" y1="69.84185" x2="264.9964" y2="69.84185" xlink:href="#linear-gradient"/><linearGradient id="linear-gradient-3" x1="125.31291" y1="197.59796" x2="264.99662" y2="197.59796" xlink:href="#linear-gradient"/><linearGradient id="linear-gradient-4" x1="104.29466" y1="86.23256" x2="146.70196" y2="86.23256" xlink:href="#linear-gradient"/><linearGradient id="linear-gradient-5" x1="130.27188" y1="88.78915" x2="160.70196" y2="88.78915" xlink:href="#linear-gradient"/></defs><g id="Layer_2" data-name="Layer 2"><g id="Layer_2-2" data-name="Layer 2"><path d="M131.20843,264.99684C58.85983,264.99684,0,206.13658,0,133.788S58.85983,2.57911,131.20843,2.57911,262.41729,61.43937,262.41729,133.788,203.557,264.99684,131.20843,264.99684Zm0-255.78535A124.57649,124.57649,0,1,0,255.78492,133.788,124.71762,124.71762,0,0,0,131.20843,9.21149Z" style="fill:#eaeaea"/><path d="M133.8807,267.576C60.11,267.576.09273,207.55873.09273,133.788S60.11,0,133.8807,0a5.8953,5.8953,0,1,1,0,11.7906,121.99738,121.99738,0,0,0,0,243.99476,5.8953,5.8953,0,1,1,0,11.79059Z" style="fill:url(#linear-gradient)"/><path d="M259.1011,139.68371a5.896,5.896,0,0,1-5.89573-5.89573A122.13533,122.13533,0,0,0,131.20843,11.7906a5.8953,5.8953,0,1,1,0-11.7906c73.77075,0,133.788,60.01722,133.788,133.788A5.89586,5.89586,0,0,1,259.1011,139.68371Z" style="fill:url(#linear-gradient-2)"/><path d="M125.31291,261.5443a5.89594,5.89594,0,0,1,5.89573-5.89573A122.13533,122.13533,0,0,0,253.206,133.65163a5.8953,5.8953,0,0,1,11.7906,0c0,73.77075-60.01722,133.788-133.788,133.788A5.89586,5.89586,0,0,1,125.31291,261.5443Z" style="fill:url(#linear-gradient-3)"/><polyline points="143.237 75.502 116.367 96.963 107.76 88.816" style="fill:none;stroke-linecap:round;stroke-linejoin:round;stroke-width:6.93008518218994px;stroke:url(#linear-gradient-4)"/><line x1="157.23692" y1="79.50235" x2="133.73692" y2="98.07595" style="fill:none;stroke-linecap:round;stroke-linejoin:round;stroke-width:6.93008518218994px;stroke:url(#linear-gradient-5)"/></g></g></svg>