<svg xmlns="http://www.w3.org/2000/svg" viewBox="0 0 19.43487 19.43487"><g id="Layer_2" data-name="Layer 2"><g id="Layer_2-2" data-name="Layer 2"><path d="M3.41572,2.84676a.56929.56929,0,1,1-.56862-.56861A.56957.56957,0,0,1,3.41572,2.84676Z" style="fill:#fff;fill-rule:evenodd"/><path d="M3.41572,5.12491a.56929.56929,0,1,1-.56862-.56962A.5687.5687,0,0,1,3.41572,5.12491Z" style="fill:#fff;fill-rule:evenodd"/><path d="M9.10992,13.134a.56929.56929,0,1,1-.569-.56962A.569.569,0,0,1,9.10992,13.134Z" style="fill:#fff;fill-rule:evenodd"/><path d="M11.38707,13.134a.56929.56929,0,1,1-.569-.56962A.569.569,0,0,1,11.38707,13.134Z" style="fill:#fff;fill-rule:evenodd"/><path d="M13.66522,13.134a.56929.56929,0,1,1-.57-.56962A.56921.56921,0,0,1,13.66522,13.134Z" style="fill:#fff;fill-rule:evenodd"/><path d="M16.58778,0H2.8471A2.85016,2.85016,0,0,0,0,2.84676V6.26348A2.8516,2.8516,0,0,0,2.27715,9.05282v2.94259a.56952.56952,0,0,0,.974.40034L6.50055,9.11057H16.58778a2.85044,2.85044,0,0,0,2.84709-2.84709V2.84676A2.84973,2.84973,0,0,0,16.58778,0ZM18.2963,6.26348A1.70983,1.70983,0,0,1,16.58778,7.971H6.26283a.56749.56749,0,0,0-.404.16962L3.41572,10.60976V8.541a.56935.56935,0,0,0-.56862-.57A1.70939,1.70939,0,0,1,1.13858,6.26348V2.84676A1.71017,1.71017,0,0,1,2.8471,1.13857H16.58778A1.71061,1.71061,0,0,1,18.2963,2.84676Z" style="fill:#fff;fill-rule:evenodd"/><path d="M16.58778,10.28688H8.541a2.84982,2.84982,0,0,0-2.8471,2.8471v1.13857A2.85046,2.85046,0,0,0,8.541,17.11966h5.4952l2.14926,2.14826a.56929.56929,0,0,0,.9723-.402v-1.804a2.85156,2.85156,0,0,0,2.27714-2.78934V13.134a2.84981,2.84981,0,0,0-2.84709-2.8471Zm1.70852,3.98567a1.71069,1.71069,0,0,1-1.70852,1.70854.56928.56928,0,0,0-.56963.56861v.94091L14.6749,16.1477a.56753.56753,0,0,0-.402-.16661H8.541a1.71,1.71,0,0,1-1.70819-1.70854V13.134A1.7099,1.7099,0,0,1,8.541,11.42579h8.04681A1.71062,1.71062,0,0,1,18.2963,13.134Z" style="fill:#fff;fill-rule:evenodd"/><path d="M16.58778,2.27815H5.12424a.56929.56929,0,1,0,0,1.13857H16.58778a.56929.56929,0,1,0,0-1.13857Z" style="fill:#fff;fill-rule:evenodd"/><path d="M16.58778,4.55529H5.12424a.56929.56929,0,1,0,0,1.13857H16.58778a.56929.56929,0,1,0,0-1.13857Z" style="fill:#fff;fill-rule:evenodd"/></g></g></svg>