<svg xmlns="http://www.w3.org/2000/svg" viewBox="0 0 18.79371 18.80423"><g id="Layer_2" data-name="Layer 2"><g id="Layer_2-2" data-name="Layer 2"><path d="M14.28376,11.17851,12.89953,9.78722l5.08717-5.0869A2.75312,2.75312,0,1,0,14.09358.80644C13.493,1.407,9.59133,5.30944,9.0102,5.89057L7.6517,4.51366A3.84465,3.84465,0,0,0,2.2036.3774a.55033.55033,0,0,0-.1531.88582L3.30331,2.51678v.79074h-.7872L1.2633,2.05118a.54993.54993,0,0,0-.88657.1531,3.84511,3.84511,0,0,0,4.17763,5.441L5.89571,9.00507,2.37814,12.52262l-.00075.00077a.57957.57957,0,0,0-.12233.18462L.04227,18.03152a.55092.55092,0,0,0,.71986.72011l5.3245-2.21355a.55263.55263,0,0,0,.18362-.12158L9.785,12.90173l1.3643,1.37135a3.841,3.841,0,0,0,5.44028,4.1562.55033.55033,0,0,0,.15285-.88608l-1.25256-1.25332v-.76272h.7872l1.25331,1.25255a.54924.54924,0,0,0,.88582-.1531,3.8443,3.8443,0,0,0-4.13248-5.4481Zm.58845-9.5927a1.65171,1.65171,0,0,1,2.33587,2.33588l-.77863.77863L14.09358,2.36444l.77863-.77863ZM13.315,3.14307l2.33588,2.33587-.77862.77837L12.53633,3.92169c.27241-.2724.50622-.507.77862-.77862ZM5.12364,6.65356A.55212.55212,0,0,0,4.58588,6.509,2.74349,2.74349,0,0,1,1.12963,3.4755l.76928.76854a.55069.55069,0,0,0,.38894.16092H3.85368A.55049.55049,0,0,0,4.405,3.85435V2.28852a.55492.55492,0,0,0-.16167-.38969L3.47483,1.1303a2.74551,2.74551,0,0,1,2.32578.76853A2.77613,2.77613,0,0,1,6.51845,4.55a.551.551,0,0,0,.14074.52563L8.23082,6.6692,6.67432,8.22644,5.12364,6.65356Zm6.63407-1.95324.788.7877L4.3334,13.701l-.78795-.78873,8.21226-8.212ZM1.57076,17.22237l1.38851-3.33822,1.95047,1.95047-3.339,1.38775Zm4.31057-1.97418-.7693-.76854,8.21226-8.213.76929.76928c-.341.34052-7.97693,7.97643-8.21225,8.21226Zm11.78151.1072-.76878-.76853a.55016.55016,0,0,0-.38894-.16093H14.9393a.55092.55092,0,0,0-.55111.55062V16.5179a.55291.55291,0,0,0,.16167.38969l.76853.76879a2.74469,2.74469,0,0,1-2.32578-.76879,2.711,2.711,0,0,1-.708-2.6625.54918.54918,0,0,0-.14074-.534l-1.58021-1.588,1.55726-1.5565,1.59382,1.60165a.552.552,0,0,0,.52892.14428,2.77371,2.77371,0,0,1,2.6504.71707A2.74062,2.74062,0,0,1,17.66284,15.35539Z" style="fill:#fff;fill-rule:evenodd"/></g></g></svg>