<svg xmlns="http://www.w3.org/2000/svg" viewBox="0 0 20.08133 18.23785"><g id="Layer_2" data-name="Layer 2"><g id="Layer_2-2" data-name="Layer 2"><path d="M17.02509,10.56372l-1.72955,1.856a1.76883,1.76883,0,0,0-1.68619-1.24116H10.52377c-.27089,0-.3901-.14855-.66536-.3901a4.12081,4.12081,0,0,0-5.82972.3901H.58828A.5879.5879,0,0,0,0,11.7668v5.88277a.58829.58829,0,0,0,.58828.58828H13.60935a4.13912,4.13912,0,0,0,3.29529-1.64718l2.82373-3.7659a1.74668,1.74668,0,0,0,.353-1.058,1.767,1.767,0,0,0-3.05624-1.20308ZM3.60831,17.06129H1.17655V12.35508H3.60831v4.70621Zm15.17881-4.94246-2.82374,3.76591a2.95614,2.95614,0,0,1-2.354,1.17655H4.78487V12.11165a2.944,2.944,0,0,1,4.29676-.43942l.2762.24218a1.7626,1.7626,0,0,0,1.16594.44067h3.08558a.58828.58828,0,0,1,0,1.17656H10.03a.58827.58827,0,1,0,0,1.17654h3.97377a1.77219,1.77219,0,0,0,1.29172-.56174l2.59028-2.78036a.58889.58889,0,0,1,1.019.40072A.57859.57859,0,0,1,18.78712,12.11883Z" style="fill:#fff;fill-rule:evenodd"/><path d="M18.2881,3.33086a.58944.58944,0,0,0-.47748-.40353L15.269,2.56657,14.13489.323a.58829.58829,0,0,0-1.05016,0L11.95062,2.56657,9.409,2.92733A.58873.58873,0,0,0,9.08538,3.936l1.831,1.74268-.43161,2.45672a.58841.58841,0,0,0,.84824.62448l2.27635-1.16875,2.277,1.16875a.5877.5877,0,0,0,.84761-.62448l-.431-2.45672L18.1333,3.936a.5868.5868,0,0,0,.1548-.60513ZM15.2637,5.04358a.58548.58548,0,0,0-.17446.528l.2815,1.60131-1.49238-.76617a.5867.5867,0,0,0-.5371,0l-1.49238.76617.28119-1.60131a.58942.58942,0,0,0-.17415-.528l-1.17843-1.122,1.64188-.23249a.59045.59045,0,0,0,.44254-.31771l.74744-1.479.74743,1.479a.58705.58705,0,0,0,.44253.31676l1.6425.23344Z" style="fill:#fff;fill-rule:evenodd"/></g></g></svg>