<svg xmlns="http://www.w3.org/2000/svg" viewBox="0 0 19.43453 19.43453"><g id="Layer_2" data-name="Layer 2"><g id="Layer_2-2" data-name="Layer 2"><path d="M19.04288,8.03746l-2.34059-.76863a7.54324,7.54324,0,0,0-.3152-.75994l1.08649-2.1733a.57033.57033,0,0,0-.10685-.65777l-1.61-1.60969a.56989.56989,0,0,0-.65777-.10719l-2.1733,1.0865a7.39258,7.39258,0,0,0-.75994-.31521L11.39707.39165A.57027.57027,0,0,0,10.85584,0H8.5787a.57008.57008,0,0,0-.54158.39165L7.26883,2.73223a7.29846,7.29846,0,0,0-.75994.31521l-2.1743-1.0865a.56861.56861,0,0,0-.65677.10719l-1.61,1.60969a.57034.57034,0,0,0-.10685.65777l1.0865,2.1733a7.626,7.626,0,0,0-.3162.75994L.39165,8.03746A.56933.56933,0,0,0,0,8.5787v2.27714a.57007.57007,0,0,0,.39165.54157l2.33959.76829a7.66511,7.66511,0,0,0,.3162.76026l-1.0865,2.173a.57026.57026,0,0,0,.10685.65777l1.61,1.61a.569.569,0,0,0,.65677.10685l2.1743-1.08649a7.22516,7.22516,0,0,0,.75994.3152l.76829,2.34059a.57008.57008,0,0,0,.54158.39165h2.27714a.56882.56882,0,0,0,.54057-.39165l.76929-2.34059a7.31738,7.31738,0,0,0,.75994-.3152l2.1733,1.08649a.57033.57033,0,0,0,.65777-.10685l1.61-1.61a.57024.57024,0,0,0,.10685-.65777l-1.08649-2.173a7.58151,7.58151,0,0,0,.3152-.76026l2.34059-.76829a.57007.57007,0,0,0,.39165-.54157V8.5787a.56933.56933,0,0,0-.39165-.54124ZM18.296,10.44415l-2.2224.72988a.569.569,0,0,0-.36694.37463,6.25336,6.25336,0,0,1-.4601,1.10752.5688.5688,0,0,0-.00668.52222l1.03173,2.06344-1.02973,1.02973-2.06346-1.03173a.57179.57179,0,0,0-.5222.00668,6.25336,6.25336,0,0,1-1.10752.4601.57162.57162,0,0,0-.37563.36728L10.44315,18.296H8.99038l-.7299-2.22206a.57014.57014,0,0,0-.37461-.36728,6.192,6.192,0,0,1-1.10753-.4601.56878.56878,0,0,0-.52221-.00668L4.19267,16.27157,3.163,15.24184,4.19469,13.1784a.57183.57183,0,0,0-.00668-.52222,6.2303,6.2303,0,0,1-.46078-1.10752A.56874.56874,0,0,0,3.361,11.174l-2.22238-.72988V8.99138L3.361,8.26082a.56921.56921,0,0,0,.36628-.375A6.21613,6.21613,0,0,1,4.188,6.77868a.57253.57253,0,0,0,.00668-.52255L3.163,4.19269,4.19267,3.163,6.25613,4.19469A.57079.57079,0,0,0,6.77834,4.188a6.22078,6.22078,0,0,1,1.10753-.4601.5704.5704,0,0,0,.37461-.367l.7299-2.22238h1.45277L11.173,3.361a.57189.57189,0,0,0,.37563.367,6.25186,6.25186,0,0,1,1.10752.4601.57077.57077,0,0,0,.5222.00668L15.24184,3.163l1.02973,1.02973L15.23984,6.25613a.57253.57253,0,0,0,.00668.52255,6.20863,6.20863,0,0,1,.4601,1.10719.56944.56944,0,0,0,.36694.375l2.2224.72956Z" style="fill:#fff;fill-rule:evenodd"/><circle cx="9.71727" cy="9.71727" r="3" style="fill:none;stroke:#fff;stroke-miterlimit:10"/></g></g></svg>