<svg xmlns="http://www.w3.org/2000/svg" xmlns:xlink="http://www.w3.org/1999/xlink" viewBox="0 0 119.61858 121.96987"><defs><linearGradient id="linear-gradient" x1="0.04247" y1="60.98494" x2="63.71467" y2="60.98494" gradientUnits="userSpaceOnUse"><stop offset="0" stop-color="#0895d3"/><stop offset="1" stop-color="#2c81d3"/></linearGradient><linearGradient id="linear-gradient-2" x1="-738.85255" y1="342.77371" x2="-675.18015" y2="342.77371" gradientTransform="translate(-640.91271 -324.12515) rotate(-128.15524)" xlink:href="#linear-gradient"/></defs><g id="Layer_2" data-name="Layer 2"><g id="Layer_2-2" data-name="Layer 2"><path d="M59.80929,120.79423a59.8093,59.8093,0,1,1,59.80929-59.80929A59.87716,59.87716,0,0,1,59.80929,120.79423Zm0-116.59533a56.786,56.786,0,1,0,56.786,56.786A56.85054,56.85054,0,0,0,59.80929,4.1989Z" style="fill:#d3d3d3"/><path d="M61.0272,121.96987A60.98494,60.98494,0,0,1,61.0272,0a2.68727,2.68727,0,1,1,0,5.37454,55.6104,55.6104,0,0,0,0,111.22079,2.68727,2.68727,0,1,1,0,5.37454Z" style="fill:url(#linear-gradient)"/><path d="M108.00363,27.09242a2.68758,2.68758,0,0,1-3.77357-.453,55.67327,55.67327,0,0,0-78.08429-9.373,2.68727,2.68727,0,0,1-3.32036-4.22622,61.05412,61.05412,0,0,1,85.631,10.27875A2.68752,2.68752,0,0,1,108.00363,27.09242Z" style="fill:url(#linear-gradient-2)"/></g></g></svg>