<svg xmlns="http://www.w3.org/2000/svg" xmlns:xlink="http://www.w3.org/1999/xlink" viewBox="0 0 120.79413 121.96987"><defs><linearGradient id="linear-gradient" x1="0.04227" y1="60.98494" x2="63.71447" y2="60.98494" gradientUnits="userSpaceOnUse"><stop offset="0" stop-color="#0895d3"/><stop offset="1" stop-color="#2c81d3"/></linearGradient><linearGradient id="linear-gradient-2" x1="57.12182" y1="31.8362" x2="120.79403" y2="31.8362" xlink:href="#linear-gradient"/><linearGradient id="linear-gradient-3" x1="57.12172" y1="90.07161" x2="120.79413" y2="90.07161" xlink:href="#linear-gradient"/></defs><g id="Layer_2" data-name="Layer 2"><g id="Layer_2-2" data-name="Layer 2"><path d="M59.80909,120.79423a59.8093,59.8093,0,1,1,59.80929-59.80929A59.877,59.877,0,0,1,59.80909,120.79423Zm0-116.59533a56.786,56.786,0,1,0,56.786,56.786A56.85037,56.85037,0,0,0,59.80909,4.1989Z" style="fill:#eaeaea"/><path d="M61.0272,121.96987A60.98494,60.98494,0,0,1,61.0272,0a2.68727,2.68727,0,0,1,0,5.37454,55.6104,55.6104,0,0,0,0,111.22079,2.68727,2.68727,0,0,1,0,5.37454Z" style="fill:url(#linear-gradient)"/><path d="M118.10676,63.6724a2.68756,2.68756,0,0,1-2.68747-2.68746,55.67329,55.67329,0,0,0-55.6102-55.6104,2.68727,2.68727,0,1,1,0-5.37454A61.05412,61.05412,0,0,1,120.794,60.98494,2.68752,2.68752,0,0,1,118.10676,63.6724Z" style="fill:url(#linear-gradient-2)"/><path d="M57.12172,119.22045a2.68756,2.68756,0,0,1,2.68747-2.68747,55.67329,55.67329,0,0,0,55.6104-55.6102,2.68727,2.68727,0,1,1,5.37454,0,61.05412,61.05412,0,0,1-60.98494,60.98494A2.68753,2.68753,0,0,1,57.12172,119.22045Z" style="fill:url(#linear-gradient-3)"/></g></g></svg>