<svg xmlns="http://www.w3.org/2000/svg" xmlns:xlink="http://www.w3.org/1999/xlink" viewBox="0 0 119.61838 120.79423"><defs><linearGradient id="linear-gradient" x1="0.04227" y1="88.95812" x2="63.71487" y2="88.95812" gradientUnits="userSpaceOnUse"><stop offset="0" stop-color="#0895d3"/><stop offset="1" stop-color="#2c81d3"/></linearGradient></defs><g id="Layer_2" data-name="Layer 2"><g id="Layer_2-2" data-name="Layer 2"><path d="M59.80929,119.61858a59.80929,59.80929,0,1,1,59.80909-59.80929A59.87715,59.87715,0,0,1,59.80929,119.61858Zm0-116.59533a56.786,56.786,0,1,0,56.78584,56.786A56.85054,56.85054,0,0,0,59.80929,3.02325Z" style="fill:#d3d3d3"/><path d="M61.0276,120.79423A61.0542,61.0542,0,0,1,.04227,59.80929a2.68737,2.68737,0,0,1,5.37474,0,55.67349,55.67349,0,0,0,55.61059,55.6104,2.68727,2.68727,0,1,1,0,5.37454Z" style="fill:url(#linear-gradient)"/></g></g></svg>