<svg xmlns="http://www.w3.org/2000/svg" viewBox="0 0 19.94546 19.94122"><g id="Layer_2" data-name="Layer 2"><g id="Layer_2-2" data-name="Layer 2"><path d="M19.22322.01659,19.207.0208,1.027,4.97933A.58472.58472,0,0,0,.809,5.99366L6.46787,10.655,5.42622,13.78058A.5849.5849,0,0,0,6.165,14.52l3.12528-1.04226,4.66164,5.65857a.58473.58473,0,0,0,1.01494-.21794L19.92447.73825l.0042-.01711a.58434.58434,0,0,0-.70545-.70455ZM2.42433,5.81,16.82891,1.88107,7.152,9.70551,2.42433,5.81ZM9.139,12.29645l-2.2346.74446.74446-2.23431,7.786-6.29616L9.139,12.29645Zm4.99755,5.22569-3.89646-4.72888,7.82414-9.67661Z" style="fill:#fff;fill-rule:evenodd"/><path d="M1.82334,18.12463a.58357.58357,0,0,0-.82612.0006l-.82642.82642a.58377.58377,0,0,0,.0009.82611.604.604,0,0,0,.82642,0l.82613-.827A.58412.58412,0,0,0,1.82334,18.12463Z" style="fill:#fff;fill-rule:evenodd"/><path d="M4.30141,15.64416a.58476.58476,0,0,0-.82643.0006l-.82611.82642a.62769.62769,0,0,0,.00089.827.6511.6511,0,0,0,.82613-.0009l.82642-.82612A.585.585,0,0,0,4.30141,15.64416Z" style="fill:#fff;fill-rule:evenodd"/></g></g></svg>