<svg xmlns="http://www.w3.org/2000/svg" viewBox="0 0 21.34337 18.35294"><g id="Layer_2" data-name="Layer 2"><g id="Layer_2-2" data-name="Layer 2"><path d="M19.88534,16.69556a.5272.5272,0,0,1-.45929.26848H1.91678a.52824.52824,0,0,1-.4514-.80149L10.21982,1.644a.52835.52835,0,0,1,.90438,0l8.75444,14.51857a.53122.53122,0,0,1,.0067.533ZM21.06765,15.445,12.314.92646a1.91867,1.91867,0,0,0-3.2844,0L.27518,15.445a1.91727,1.91727,0,0,0,1.6416,2.90791H19.42605a1.91727,1.91727,0,0,0,1.6416-2.90791Z" style="fill:#fff;fill-rule:evenodd"/><path d="M10.67831,12.34318c.30948,0,.74748-.16794.74748-.5677,0-1.53358.181-3.73817.181-5.27253a.8289.8289,0,0,0-.92844-.78689c-.52867,0-.941.28385-.941.78689,0,1.53436.17978,3.73895.17978,5.27253C9.91705,12.17524,10.26594,12.34318,10.67831,12.34318Z" style="fill:#fff;fill-rule:evenodd"/><path d="M10.69172,13.23258a.99289.99289,0,1,0,0,1.98577.993.993,0,0,0,0-1.98577Z" style="fill:#fff;fill-rule:evenodd"/></g></g></svg>